<?xml version="1.0" standalone="no"?><!DOCTYPE svg PUBLIC "-//W3C//DTD SVG 1.1//EN" "http://www.w3.org/Graphics/SVG/1.1/DTD/svg11.dtd"><svg t="1584441215142" class="icon" viewBox="0 0 1024 1024" version="1.1" xmlns="http://www.w3.org/2000/svg" p-id="8474" xmlns:xlink="http://www.w3.org/1999/xlink" width="200" height="200"><defs><style type="text/css"></style></defs><path d="M161.568444 335.434485c-27.294669-17.496583-45.391135-48.090607-45.391135-82.983792 0-54.389377 44.091388-98.480765 98.480766-98.480765 36.392892 0 68.286663 19.796134 85.283343 49.190392 38.592462-18.096466 81.684046-28.194493 127.175161-28.194493h169.966803c45.491115 0 88.582699 10.098028 127.175161 28.194493 16.99668-29.394259 48.890451-49.190393 85.283343-49.190392 54.389377 0 98.480765 44.091388 98.480766 98.480765 0 34.793204-18.096466 65.387229-45.391135 82.983792 21.895723 41.691857 34.393283 89.182582 34.393283 139.47276v58.488576c0 197.961336-160.468658 358.429994-358.429994 358.429994h-52.989651c-197.961336 0-358.429994-160.468658-358.429994-358.429994v-58.488576c0.09998-50.390158 12.497559-97.880883 34.393283-139.47276z" fill="#F7CF79" p-id="8475"></path><path d="M841.135716 719.859402c-63.587581 99.780512-175.265768 165.967584-302.44093 165.967585h-52.98965c-127.175161 0-238.853349-66.187073-302.44093-165.967585v-27.994532c0-55.189221 44.791252-79.984378 99.980473-79.984378H336.934193c10.397969-44.091388 49.990236-76.984964 97.280999-76.984964h158.968952c47.290764 0 86.983011 32.893575 97.281 76.984964h50.690099c55.189221 0 99.980473 24.795157 99.980473 79.984378v27.994532z" fill="#FFFFFF" p-id="8476"></path><path d="M538.694786 894.825229h-52.98965c-62.887717 0-124.87561-16.196837-179.464949-46.69088-52.78969-29.59422-97.980863-72.285882-130.574497-123.475884l-1.399726-2.19957v-30.594025c0-54.889279 41.791838-88.982621 108.978715-88.98262h46.790861c6.39875-20.695958 18.99629-39.392306 36.092951-53.089631 19.196251-15.396993 43.391525-23.895333 68.086701-23.895333h158.968952c24.695177 0 48.890451 8.49834 68.086702 23.895333 17.096661 13.697325 29.6942 32.293693 36.09295 53.089631h43.791447c67.186878 0 108.978715 34.093341 108.978715 88.98262v30.594025l-1.399726 2.19957c-32.593634 51.090021-77.784808 93.781683-130.574498 123.475884-54.589338 30.494044-116.577231 46.690881-179.464948 46.69088zM192.262449 717.15993c30.893966 47.690685 73.285686 87.482913 122.77602 115.177504 51.789885 29.094318 110.878344 44.39133 170.666667 44.39133h52.98965c59.788323 0 118.776801-15.396993 170.666667-44.39133 49.490334-27.794571 91.882054-67.586799 122.77602-115.177504v-25.29506c0-23.19547-8.598321-41.091974-25.595001-53.389572-15.896895-11.497754-38.492482-17.596563-65.387229-17.596563h-57.788713l-1.599688-6.898653c-4.599102-19.596173-15.896895-37.392697-31.693809-50.090217-16.296817-13.097442-35.99297-19.996095-56.888889-19.996094h-158.968952c-20.895919 0-40.592072 6.898653-56.888889 19.996094-15.796915 12.69752-27.094708 30.494044-31.693809 50.090217l-1.599688 6.898653h-60.788127c-26.894747 0-49.490334 6.098809-65.387229 17.596563-16.99668 12.297598-25.595001 30.194103-25.595001 53.389572v25.29506z" fill="#525252" p-id="8477"></path><path d="M538.694786 906.822886h-52.98965c-50.390158 0-99.280609-9.898067-145.371607-29.394259-44.49131-18.796329-84.383519-45.691076-118.676821-79.984378s-61.188049-74.185511-79.984378-118.676821c-19.496192-46.090998-29.394259-94.981449-29.394259-145.371607v-58.488576c0-46.690881 10.397969-92.981839 30.294083-134.873658-26.094903-21.395821-41.291935-53.289592-41.291935-87.582894 0-62.587776 50.890061-113.477836 113.477836-113.477836 35.793009 0 69.486428 17.096661 90.782269 45.391134 38.492482-16.196837 79.384495-24.395235 121.676235-24.395235h169.966804c42.29174 0 83.183753 8.198399 121.676235 24.395235 21.295841-28.294474 54.98926-45.391135 90.782269-45.391134 62.587776 0 113.477836 50.890061 113.477836 113.477836 0 34.293302-15.197032 66.087092-41.291935 87.582894 19.796134 41.891818 30.294083 88.282757 30.294083 134.873658v58.488576c0 50.390158-9.898067 99.280609-29.394259 145.371607-18.796329 44.49131-45.691076 84.383519-79.984378 118.676821s-74.185511 61.188049-118.676821 79.984378c-46.090998 19.496192-94.981449 29.394259-145.371607 29.394259z m-323.936731-737.855887c-45.991017 0-83.483695 37.492677-83.483695 83.483694 0 28.594415 14.397188 54.889279 38.492482 70.286272l11.597735 7.398555-6.39875 12.197618c-21.395821 40.592072-32.593634 86.383128-32.593634 132.574107v58.488576c0 91.782074 35.693029 177.965241 100.580355 242.852568 64.887327 64.887327 151.070494 100.580355 242.852568 100.580355h52.989651c91.782074 0 177.965241-35.693029 242.852568-100.580355 64.887327-64.887327 100.580355-151.070494 100.580355-242.852568v-58.488576c0-46.190978-11.297793-91.982035-32.593634-132.574107l-6.39875-12.197618 11.597734-7.398555c24.095294-15.496973 38.492482-41.791838 38.492482-70.286272 0-45.991017-37.492677-83.483695-83.483694-83.483694-29.6942 0-57.388791 15.996876-72.285882 41.691857l-6.898653 11.897676-12.497559-5.798867c-37.892599-17.796524-78.584651-26.794767-120.77641-26.794767h-169.966804c-42.191759 0-82.883812 8.998243-120.776411 26.794767l-12.497559 5.798867-6.898652-11.897676c-15.097051-25.694981-42.791642-41.691857-72.485843-41.691857z" fill="#525252" p-id="8478"></path><path d="M633.570779 756.752132l-63.744011-5.576879L575.99619 680.658442l63.74401 5.576878z" fill="#FFFFFF" p-id="8479"></path><path d="M425.716852 338.933802h172.966218c12.397579 0 22.495606-10.098028 22.495606-22.495606v-4.999024c0-12.397579-10.098028-22.495606-22.495606-22.495606h-61.587971c0.09998-0.799844 0.09998-1.699668 0.09998-2.499512v-11.497754h61.487991c12.397579 0 22.495606-10.098028 22.495606-22.495607v-4.999023c0-12.397579-10.098028-22.495606-22.495606-22.495607h-61.487991v-13.997266h61.487991c12.397579 0 22.495606-10.098028 22.495606-22.495606v-4.999024c0-12.397579-10.098028-22.495606-22.495606-22.495606h-172.966218c-12.397579 0-22.495606 10.098028-22.495606 22.495606v4.999024c0 12.397579 10.098028 22.495606 22.495606 22.495606h61.487991v13.997266h-61.487991c-12.397579 0-22.495606 10.098028-22.495606 22.495607v4.999023c0 12.397579 10.098028 22.495606 22.495606 22.495607h61.487991v11.497754c0 0.799844 0.09998 1.699668 0.09998 2.499512h-61.587971c-12.397579 0-22.495606 10.098028-22.495606 22.495606v4.999024c0 12.397579 10.098028 22.495606 22.495606 22.495606zM175.765671 528.396798h-28.994337c-13.797305 0-24.995118 11.197813-24.995118 24.995118s11.197813 24.995118 24.995118 24.995118h28.994337c13.797305 0 24.995118-11.197813 24.995118-24.995118s-11.197813-24.995118-24.995118-24.995118zM153.769967 428.416325h28.994337c13.797305 0 24.995118-11.197813 24.995118-24.995118s-11.197813-24.995118-24.995118-24.995118h-28.994337c-13.797305 0-24.995118 11.197813-24.995118 24.995118s11.197813 24.995118 24.995118 24.995118zM199.760984 453.411443h-51.989846c-13.797305 0-24.995118 11.197813-24.995118 24.995118s11.197813 24.995118 24.995118 24.995118h51.989846c13.797305 0 24.995118-11.197813 24.995118-24.995118s-11.197813-24.995118-24.995118-24.995118zM842.635423 428.416325h28.994337c13.797305 0 24.995118-11.197813 24.995118-24.995118s-11.197813-24.995118-24.995118-24.995118h-28.994337c-13.797305 0-24.995118 11.197813-24.995118 24.995118s11.197813 24.995118 24.995118 24.995118zM878.628393 529.396602h-28.994337c-13.797305 0-24.995118 11.197813-24.995118 24.995118s11.197813 24.995118 24.995118 24.995119h28.994337c13.797305 0 24.995118-11.197813 24.995118-24.995119s-11.197813-24.995118-24.995118-24.995118zM878.128491 503.901582c13.797305 0 24.995118-11.197813 24.995118-24.995118s-11.197813-24.995118-24.995118-24.995119h-51.989846c-13.797305 0-24.995118 11.197813-24.995118 24.995119s11.197813 24.995118 24.995118 24.995118h51.989846z" fill="#525252" p-id="8480"></path><path d="M362.229252 446.912712m-24.995118 0a24.995118 24.995118 0 1 0 49.990236 0 24.995118 24.995118 0 1 0-49.990236 0Z" fill="#525252" p-id="8481"></path><path d="M662.17067 446.912712m-24.995118 0a24.995118 24.995118 0 1 0 49.990236 0 24.995118 24.995118 0 1 0-49.990236 0Z" fill="#525252" p-id="8482"></path><path d="M635.475884 688.365554c3.099395-3.899238 2.499512-9.498145-1.399727-12.69752-3.899238-3.099395-9.498145-2.499512-12.69752 1.399726-23.795352 29.6942-60.988088 47.890646-100.480375 49.590315 0.09998-0.599883 0.199961-1.199766 0.199961-1.899629v-65.987112c3.099395-0.899824 6.198789-2.19957 8.998243-4.0992l22.695567-14.697129c4.099199-2.599492 6.498731-7.198594 6.498731-11.997657 0-7.898457-6.39875-14.297208-14.297208-14.297207H478.906464c-4.899043 0-9.398164 2.499512-11.997657 6.49873-4.29916 6.598711-2.399531 15.496973 4.29916 19.696153l22.695567 14.69713c2.899434 1.799649 5.898848 3.199375 9.098223 4.099199v65.987112c0 0.499902 0.09998 0.999805 0.099981 1.499707-40.392111-3.199375-78.084749-22.595587-100.180434-52.289787-2.999414-3.999219-8.598321-4.799063-12.597539-1.799648s-4.799063 8.598321-1.799649 12.597539c27.59461 36.992775 75.985159 59.988284 126.275337 59.988284 22.395626 0 44.291349-4.799063 64.187464-13.597345l42.891622 26.994728c1.499707 1.199766 3.199375 1.899629 5.099004 2.09959 0.399922 0 0.699863 0.09998 1.099786 0.09998 2.299551 0 4.499121-0.799844 6.298769-2.19957 1.699668-1.299746 2.799453-3.099395 3.399336-5.198985l0.399922-1.499707-4.899043-60.288225c0.799844-0.899824 1.499707-1.799649 2.199571-2.699472z m-37.892599 33.193516c6.698692-4.099199 12.997461-8.698301 18.996289-13.797305l2.199571 27.094708-21.19586-13.297403z" fill="#525252" p-id="8483"></path></svg>